PathFileType	4	(X/Y/Z)	C:\Users\Basilio\Documents\Thesis Gigler\squatting_fais\c3dfiles\054\SLS_front_pre5\markers_experimental.trc
DataRate	CameraRate	NumFrames	NumMarkers	Units	OrigDataRate	OrigDataStartFrame	OrigNumFrames
200.000000	200.000000	4	61	mm	200.000000	529	1413
Frame#	Time	FHD			LBHD			RBHD			C7			T10			CLAV			LSHO			LUUPA			LMUPA			LDUPA			LLEP			LMEP			LRAD			LUL			LRFIN			RSHO			RUPA1			RMUPA			RDUPA			RLEP			RMEP			RRAD			RUL			RUFIN			LASI			RASI			USACR			LSACR			RSACR			LTHI1			LTHI2			LTHI3			LTHI4			LLFC			LMFC			LTIB1			LTIB2			LTIB3			LTIB4			LLMAL			LMMAL			LHEE			LMT1			LMT2			LMT5			RTHI			RTHI2			RTHI3			RTHI4			RLFC			RMFC			RTIB1			RTIB2			RTIB3			RTIB4			RLMAL			RMMAL			RHEE			RMT1			RMT2			RMT5			
		X1	Y1	Z1	X2	Y2	Z2	X3	Y3	Z3	X4	Y4	Z4	X5	Y5	Z5	X6	Y6	Z6	X7	Y7	Z7	X8	Y8	Z8	X9	Y9	Z9	X10	Y10	Z10	X11	Y11	Z11	X12	Y12	Z12	X13	Y13	Z13	X14	Y14	Z14	X15	Y15	Z15	X16	Y16	Z16	X17	Y17	Z17	X18	Y18	Z18	X19	Y19	Z19	X20	Y20	Z20	X21	Y21	Z21	X22	Y22	Z22	X23	Y23	Z23	X24	Y24	Z24	X25	Y25	Z25	X26	Y26	Z26	X27	Y27	Z27	X28	Y28	Z28	X29	Y29	Z29	X30	Y30	Z30	X31	Y31	Z31	X32	Y32	Z32	X33	Y33	Z33	X34	Y34	Z34	X35	Y35	Z35	X36	Y36	Z36	X37	Y37	Z37	X38	Y38	Z38	X39	Y39	Z39	X40	Y40	Z40	X41	Y41	Z41	X42	Y42	Z42	X43	Y43	Z43	X44	Y44	Z44	X45	Y45	Z45	X46	Y46	Z46	X47	Y47	Z47	X48	Y48	Z48	X49	Y49	Z49	X50	Y50	Z50	X51	Y51	Z51	X52	Y52	Z52	X53	Y53	Z53	X54	Y54	Z54	X55	Y55	Z55	X56	Y56	Z56	X57	Y57	Z57	X58	Y58	Z58	X59	Y59	Z59	X60	Y60	Z60	X61	Y61	Z61	

530	2.645	-224.8267517089844	1750.294189453125	-1106.748901367188	-384.1268920898439	1692.889526367188	-1178.863647460938	-403.3208312988282	1694.606567382813	-1039.666870117188	-434.284637451172	1527.545776367188	-1091.430419921875	-475.8626098632814	1199.008544921875	-1082.25244140625	-290.8535156250001	1468.7705078125	-1097.012573242188	-363.8695983886719	1524.697631835938	-1244.411376953125	-218.9551849365235	1402.431884765625	-1373.965454101563	-184.0772399902344	1436.306762695313	-1361.446533203125	-150.4810638427735	1391.92138671875	-1385.293823242188	-93.41226959228517	1393.890380859375	-1385.193359375	-93.22883605957033	1328.186645507813	-1341.154296875	165.7530212402344	1405.603393554688	-1315.72265625	177.4641418457032	1373.997680664063	-1386.121948242188	256.6214904785157	1422.414184570313	-1337.4580078125	-357.2736816406251	1530.361694335938	-952.339050292969	-199.7855987548829	1430.525024414063	-821.349792480469	-165.5362396240235	1461.883544921875	-834.8203735351565	-131.20458984375	1417.331787109375	-809.624450683594	-87.38174438476564	1413.746337890625	-812.3973388671877	-89.10317993164064	1353.615356445313	-857.658386230469	182.2141265869141	1454.3193359375	-906.197448730469	180.1688537597657	1424.621704101563	-831.1206054687502	258.2428588867188	1481.087646484375	-888.679382324219	-279.2737731933594	1025.510864257813	-1177.002563476563	-296.1608886718751	1063.131225585938	-930.7142333984377	-478.7771911621095	1101.051147460938	-1070.649658203125	-478.803192138672	1065.66455078125	-1094.329956054688	-484.2907714843751	1071.893798828125	-1037.917846679688	-303.8867492675782	767.9584350585939	-1242.368530273438	-249.9006805419922	702.5140380859376	-1237.08447265625	-206.2700500488282	720.4702148437501	-1232.723022460938	-260.9190063476563	645.1390991210939	-1217.55712890625	-217.3089904785157	502.811737060547	-1185.604125976563	-178.5854949951172	518.9728393554689	-1054.205688476563	-201.7234344482422	346.4972839355469	-1109.970581054688	-261.8355407714844	302.6362304687501	-1159.100952148438	-224.9803466796876	296.7830810546876	-1132.476196289063	-247.1110076904297	230.1759185791016	-1085.509399414063	-337.2059936523438	111.1188125610352	-1102.074951171875	-302.4648742675782	137.268310546875	-1014.71337890625	-407.4748840332032	106.2288894653321	-1039.423217773438	-197.9000549316407	58.06067276000978	-1019.049865722656	-189.3205261230469	53.44065475463869	-1068.104736328125	-242.7478485107422	37.71086502075196	-1118.256591796875	-191.9380950927735	804.843200683594	-842.287048339844	-127.5786209106446	792.1015625000002	-853.8145751953127	-105.9308853149414	814.3937988281252	-864.9028930664065	-95.24058532714845	715.8357543945314	-866.5523681640627	-44.85015106201173	638.1658325195314	-870.9431762695315	-26.23305130004884	663.8701171875001	-1004.725341796875	59.35142135620119	579.2783203125001	-883.4932250976565	45.29078674316407	481.0223693847657	-844.702087402344	86.17945098876955	499.7957763671876	-858.0471191406252	124.2983093261719	465.5669250488282	-884.5681762695315	175.2130737304688	288.8778381347657	-860.8050537109377	199.1352996826172	316.6111145019532	-947.767761230469	145.0796356201172	224.0706481933594	-916.594909667969	345.2695617675782	322.0724182128907	-926.266296386719	342.1705322265626	334.0082397460938	-879.5628662109377	307.6253051757813	296.8426818847657	-830.0120849609377	
531	2.65	-224.5252685546876	1749.253662109375	-1106.696533203125	-383.9097595214844	1691.581909179688	-1178.856811523438	-403.2860107421876	1693.477172851563	-1039.709716796875	-434.2052612304689	1526.516723632813	-1091.45703125	-475.751434326172	1197.782348632813	-1082.357788085938	-290.8440551757813	1467.481567382813	-1096.985473632813	-363.7701721191407	1523.609619140625	-1244.277099609375	-218.7846221923829	1401.346923828125	-1373.896484375	-184.0478668212891	1435.376586914063	-1361.394775390625	-150.3971710205078	1391.229248046875	-1385.231811523438	-93.31923675537111	1393.072631835938	-1385.106567382813	-93.06432342529298	1327.544921875	-1341.080078125	165.5455474853516	1404.843505859375	-1315.824584960938	177.4318542480469	1373.228393554688	-1386.138671875	256.7061767578126	1421.76220703125	-1337.40869140625	-357.2417907714844	1529.317138671875	-952.304870605469	-199.6842193603516	1429.46728515625	-821.3847656250002	-165.3986511230469	1460.832641601563	-834.964538574219	-131.0553894042969	1416.19140625	-809.6375732421877	-87.1951141357422	1413.085327148438	-812.5305786132815	-88.89527130126955	1352.776123046875	-857.6426391601565	182.5028381347657	1453.748168945313	-906.3602294921877	180.3373413085938	1424.001953125	-831.2349243164065	258.2583007812501	1480.572387695313	-888.763122558594	-279.5934753417969	1024.299682617188	-1177.124633789063	-296.7801818847657	1062.015258789063	-930.7176513671877	-479.6148071289064	1100.201049804688	-1070.663818359375	-479.2133789062501	1064.77099609375	-1094.341796875	-484.5510864257814	1070.802612304688	-1037.827758789063	-303.5907897949219	766.8893432617189	-1242.625610351563	-249.4581909179688	701.9192504882814	-1237.372436523438	-205.7232055664063	719.9533691406251	-1232.973022460938	-260.1752624511719	644.4551391601564	-1217.705810546875	-215.9191589355469	502.163787841797	-1185.813842773438	-177.4597625732422	518.4688720703126	-1054.474609375	-200.6958770751954	345.6867370605469	-1109.80224609375	-261.2553100585938	302.1956176757813	-1159.162841796875	-224.6499023437501	296.4711608886719	-1132.311767578125	-246.6955718994141	229.9636383056641	-1085.5947265625	-337.1946716308594	110.9904327392578	-1102.122436523438	-302.3427429199219	137.2640075683594	-1014.802307128906	-407.4648742675782	106.220703125	-1039.460205078125	-197.9054412841797	58.04977798461915	-1019.080444335938	-189.3562927246094	53.4477005004883	-1068.156494140625	-242.940414428711	37.74023056030274	-1118.250366210938	-192.4445495605469	803.8228759765627	-842.210144042969	-127.9212646484375	791.059265136719	-853.6980590820315	-106.4081573486328	813.3438110351565	-864.8177490234377	-95.7963333129883	714.7894287109376	-866.3623657226565	-45.39318466186524	637.2340087890626	-870.8785400390627	-26.55219459533692	662.9614868164064	-1004.763061523438	59.07640838623048	578.3720092773439	-883.4652099609377	44.7303695678711	479.9436340332032	-844.5984497070315	85.6230926513672	498.8929748535157	-857.8205566406252	124.1018295288086	464.5981750488282	-884.8457031250002	174.9972381591797	288.1025085449219	-860.868347167969	198.9471588134766	315.7647399902344	-947.8520507812502	144.8123016357422	223.0622711181641	-916.6422119140627	344.7907714843751	321.2626342773438	-926.0957641601565	342.0113220214844	333.4684143066407	-879.4307250976565	307.2255249023438	296.1743164062501	-829.839538574219	
532	2.655	-224.4985351562501	1748.158569335938	-1106.573852539063	-383.8633728027344	1690.6083984375	-1178.732299804688	-403.1611328125001	1692.246948242188	-1039.655883789063	-434.0491638183595	1525.59423828125	-1091.302978515625	-476.5488891601564	1197.056640625	-1082.073974609375	-290.7013854980469	1466.426513671875	-1096.881713867188	-363.5368957519532	1522.543334960938	-1244.197265625	-218.7660217285157	1400.391967773438	-1373.847290039063	-184.0373077392578	1434.219970703125	-1361.28662109375	-150.6877593994141	1390.530029296875	-1385.233276367188	-93.21553802490236	1392.23583984375	-1385.070190429688	-92.9502410888672	1326.555053710938	-1341.029541015625	165.685531616211	1404.091430664063	-1315.74853515625	177.5900573730469	1372.46484375	-1386.118286132813	256.8730468750001	1421.115234375	-1337.45947265625	-356.9599609375001	1528.40283203125	-952.360534667969	-199.7907257080079	1428.683349609375	-821.3507080078127	-165.2529754638672	1460.098999023438	-834.9197387695315	-131.0381469726563	1415.531860351563	-809.6702270507815	-87.20955657958986	1412.364990234375	-812.4526367187502	-88.7329788208008	1352.06591796875	-857.7202758789065	182.4771118164063	1453.217651367188	-906.4397583007815	180.4017181396485	1423.448486328125	-831.2940063476565	258.2636413574219	1480.125366210938	-888.9698486328127	-279.6753845214844	1023.137878417969	-1176.757080078125	-297.1832580566407	1060.745849609375	-930.5866699218752	-479.5669555664064	1099.022338867188	-1070.692749023438	-479.4367980957032	1063.656616210938	-1094.331420898438	-484.8462524414064	1069.860229492188	-1037.758056640625	-303.6973876953126	766.0147705078126	-1243.023559570313	-248.9249572753907	701.1154174804689	-1237.6806640625	-205.2237548828126	719.3854980468751	-1233.2001953125	-259.3976440429688	643.7091064453126	-1218.059936523438	-215.0494384765626	501.7366638183595	-1185.974609375	-176.0794067382813	517.9554443359376	-1054.75439453125	-199.9631958007813	345.2002258300782	-1109.862915039063	-260.7766113281251	301.6879272460938	-1159.759155273438	-224.4337310791016	295.8898620605469	-1132.673095703125	-246.0998687744141	229.6344757080079	-1085.625244140625	-337.1213378906251	110.8921279907227	-1102.183837890625	-302.3008728027344	137.2168426513672	-1014.813903808594	-407.4456481933595	106.1530990600586	-1039.434936523438	-197.8847808837891	58.05908203125001	-1019.105346679688	-189.3571166992188	53.43675994873048	-1068.163818359375	-242.9323883056641	37.74013137817384	-1118.300659179688	-192.6387786865235	802.9335937500002	-842.2670898437502	-128.340560913086	790.276794433594	-853.693786621094	-106.9580841064453	812.4138183593752	-864.6157226562502	-95.86781311035158	713.9982910156251	-866.4869384765627	-45.8398666381836	636.3869018554689	-870.9063110351565	-26.27314567565919	662.1228027343751	-1004.620544433594	58.7411460876465	577.3974609375001	-883.4226684570315	44.44749832153321	479.102264404297	-844.674255371094	85.26280212402345	498.0167846679689	-857.8704223632815	123.5028228759766	463.8047790527345	-884.6898193359377	174.6180267333985	287.1993103027344	-860.9696044921877	198.7163848876954	314.8151245117188	-947.8597412109377	144.5860900878907	222.3188781738282	-916.8874511718752	344.5100708007813	319.8650817871094	-925.7777099609377	341.3473510742188	332.1398620605469	-879.272644042969	306.7387084960938	295.2697753906251	-829.7947387695315	
533	2.66	-224.1053009033204	1746.945678710938	-1106.570190429688	-383.4450073242188	1689.381958007813	-1178.8251953125	-402.9303283691407	1691.277587890625	-1039.695190429688	-433.9812316894532	1524.528198242188	-1091.344482421875	-476.641815185547	1195.906005859375	-1082.17822265625	-290.5881652832032	1465.3193359375	-1096.927001953125	-363.3022155761719	1521.587036132813	-1244.0126953125	-218.5117187500001	1399.540649414063	-1373.74365234375	-184.0170288085938	1433.254028320313	-1361.241088867188	-150.1487731933594	1389.205200195313	-1385.131958007813	-93.18832397460939	1391.304321289063	-1384.930786132813	-92.80739593505861	1325.67138671875	-1340.820190429688	165.7228240966797	1403.317016601563	-1315.716552734375	177.7610473632813	1371.700561523438	-1386.153198242188	256.9492797851563	1420.379272460938	-1337.41259765625	-356.8818969726563	1527.268920898438	-952.3171997070315	-199.4262695312501	1427.726196289063	-821.4722900390627	-165.1594696044922	1459.216064453125	-834.715759277344	-130.8482208251953	1414.53076171875	-809.5254516601565	-86.86525726318361	1411.147705078125	-812.469421386719	-88.48891448974611	1351.291259765625	-857.6246337890627	184.0070953369141	1452.831176757813	-907.2230224609377	180.6990051269532	1422.898803710938	-831.429138183594	258.4186096191407	1479.453491210938	-888.9971923828127	-280.1112670898438	1022.118469238281	-1176.70654296875	-297.5349426269532	1059.75537109375	-930.5187988281252	-480.1661071777345	1098.146118164063	-1070.73583984375	-479.869354248047	1062.763061523438	-1094.325439453125	-485.9587707519532	1068.714599609375	-1037.534790039063	-303.5783996582032	765.1757812500001	-1243.209594726563	-248.4668884277344	700.4057617187501	-1237.810913085938	-204.8214569091797	718.7979736328126	-1233.30322265625	-258.6629333496094	642.9072265625001	-1218.341674804688	-213.4694824218751	500.8378295898439	-1186.181762695313	-174.7736206054688	517.4302368164064	-1054.880126953125	-199.0906982421876	344.8571166992188	-1110.05712890625	-259.8554687500001	301.2523803710938	-1159.786499023438	-223.1211547851563	295.5448608398438	-1132.927124023438	-245.6074676513672	229.4359436035157	-1085.666870117188	-337.2041320800782	110.8337783813477	-1102.16796875	-302.2490539550782	137.1891174316407	-1014.830200195313	-407.380340576172	106.1161727905274	-1039.472900390625	-197.9203796386719	58.07615661621095	-1019.11279296875	-189.3637847900391	53.49092102050783	-1068.194213867188	-242.8291625976563	37.61956024169923	-1118.242919921875	-193.172103881836	801.770446777344	-842.121765136719	-128.6522521972657	789.2723388671877	-853.5915527343752	-107.3749313354492	811.6323852539065	-864.4888305664065	-96.44462585449222	712.9780883789064	-866.3254394531252	-46.18952178955079	635.4558105468751	-870.8583984375002	-26.57128334045411	661.2148437500001	-1004.6904296875	58.4805374145508	576.7201538085939	-883.4461059570315	44.20265579223634	478.3695373535157	-844.8571777343752	84.92823028564455	497.1441345214845	-857.643737792969	123.4943923950196	463.0081787109376	-884.6470336914065	174.3203430175782	286.2906188964844	-860.9339599609377	198.3251342773438	314.0498046875001	-947.905212402344	144.2793731689453	221.4026336669922	-917.0067138671877	344.2076721191407	319.0616760253907	-925.615905761719	341.3114318847657	331.7814025878907	-879.3652954101565	306.4389648437501	294.1831054687501	-829.655212402344	
